<svg width="120" height="95" viewBox="0 0 120 95" fill="none" xmlns="http://www.w3.org/2000/svg">
<path fill-rule="evenodd" clip-rule="evenodd" d="M117.351 21.9238H28V78.331C28 78.3311 28 78.3311 28 78.3312C28.0003 84.265 48.0021 89.0753 72.6756 89.0753C97.349 89.0753 117.351 84.265 117.351 78.3312C117.351 78.3311 117.351 78.3311 117.351 78.331V21.9238Z" fill="url(#paint0_linear_0_1)"/>
<g filter="url(#filter0_d_0_1)">
<ellipse cx="72.7465" cy="78.3312" rx="42.977" ry="10.7443" fill="url(#paint1_linear_0_1)" fill-opacity="0.6" shape-rendering="crispEdges"/>
<path d="M72.7465 89.9586C84.6648 89.9586 95.4844 88.7517 103.35 86.7853C107.276 85.8038 110.516 84.621 112.796 83.2736C115.016 81.9612 116.607 80.3197 116.607 78.3312C116.607 76.3427 115.016 74.7012 112.796 73.3887C110.516 72.0413 107.276 70.8585 103.35 69.877C95.4844 67.9106 84.6648 66.7037 72.7465 66.7037C60.8283 66.7037 50.0087 67.9106 42.143 69.877C38.2169 70.8585 34.9771 72.0413 32.6975 73.3887C30.477 74.7012 28.8864 76.3427 28.8864 78.3312C28.8864 80.3197 30.477 81.9612 32.6975 83.2736C34.9771 84.621 38.2169 85.8038 42.143 86.7853C50.0087 88.7517 60.8283 89.9586 72.7465 89.9586Z" stroke="url(#paint2_linear_0_1)" stroke-width="1.76635" shape-rendering="crispEdges"/>
</g>
<path fill-rule="evenodd" clip-rule="evenodd" d="M73.5032 67.5895C73.2515 67.5884 72.9993 67.5879 72.7465 67.5879C49.011 67.5879 29.7695 72.3983 29.7695 78.3321C29.7695 83.2056 42.7482 87.3212 60.5359 88.6365L73.5032 67.5895Z" fill="url(#paint3_linear_0_1)" fill-opacity="0.6"/>
<g filter="url(#filter1_d_0_1)">
<mask id="path-5-outside-1_0_1" maskUnits="userSpaceOnUse" x="47.5547" y="5" width="51" height="64" fill="black">
<rect fill="white" x="47.5547" y="5" width="51" height="64"/>
<path fill-rule="evenodd" clip-rule="evenodd" d="M72.9701 67.4842C86.4544 67.4842 97.3856 43.8997 97.3856 30.4155C97.3856 16.9312 86.4544 6 72.9701 6C59.4859 6 48.5547 16.9312 48.5547 30.4155C48.5547 43.8997 59.4859 67.4842 72.9701 67.4842ZM62.8928 51.5434C63.0848 51.6208 63.2905 51.6606 63.4982 51.6606H76.2256C76.4334 51.6606 76.6391 51.6208 76.831 51.5434C77.023 51.4661 77.1974 51.3528 77.3443 51.2099C77.4912 51.067 77.6077 50.8974 77.6872 50.7107C77.7667 50.524 77.8077 50.324 77.8077 50.1219C77.8077 49.9198 77.7667 49.7198 77.6872 49.5331C77.6077 49.3464 77.4912 49.1768 77.3443 49.0339C77.1974 48.891 77.023 48.7777 76.831 48.7004C76.6391 48.6231 76.4334 48.5833 76.2256 48.5833H70.1761V45.3252C72.3522 45.7302 74.594 45.6536 76.7354 45.1011C78.8769 44.5486 80.863 43.5345 82.5465 42.1338C85.2289 39.544 84.1579 34.5499 81.1552 30.0315L78.2845 30.928L77.9813 31.4774C80.5292 35.0683 81.4412 38.431 79.9741 39.7461C78.0791 41.4512 72.9246 39.085 68.4669 34.4619C64.0093 29.8388 61.9284 24.7068 63.821 23.0017C65.3688 21.6058 69.1027 22.9328 72.8414 25.9934C72.9351 26.0689 73.0485 26.1176 73.169 26.134C73.2895 26.1504 73.4123 26.1338 73.5236 26.0862L73.8464 25.9458L74.2621 23.3822C74.2816 23.2708 74.269 23.1564 74.2259 23.0515C74.1828 22.9466 74.1107 22.8553 74.0176 22.7877C69.3301 19.4797 64.2196 17.9934 61.4149 20.7021C57.8474 24.1527 55.7029 34.7758 62.5495 41.3918C63.8315 42.6438 65.3403 43.6548 66.9998 44.374V48.5833H63.4982C63.2905 48.5833 63.0848 48.6231 62.8928 48.7004C62.7009 48.7777 62.5265 48.891 62.3796 49.0339C62.2327 49.1768 62.1161 49.3464 62.0366 49.5331C61.9571 49.7198 61.9162 49.9198 61.9162 50.1219C61.9162 50.324 61.9571 50.524 62.0366 50.7107C62.1161 50.8974 62.2327 51.067 62.3796 51.2099C62.5265 51.3528 62.7009 51.4661 62.8928 51.5434ZM71.4061 32.2455L71.7631 32.5903V32.588C71.9311 32.7583 72.1347 32.8916 72.3603 32.9789C72.5858 33.0662 72.8279 33.1054 73.0703 33.0939C73.3128 33.0824 73.5498 33.0205 73.7655 32.9123C73.9813 32.8041 74.1706 32.6521 74.3208 32.4667L77.4042 28.84C77.6338 28.5583 77.7837 28.2232 77.8391 27.8678C77.8944 27.5123 77.8532 27.149 77.7196 26.8139C78.0267 27.0557 78.4102 27.1868 78.8053 27.1849C79.1521 27.1827 79.4906 27.0816 79.7789 26.8942C80.0673 26.7067 80.2927 26.4412 80.4274 26.1304C80.5621 25.8196 80.6001 25.4772 80.5367 25.1456C80.4733 24.814 80.3113 24.5077 80.0707 24.2648C79.8302 24.0218 79.5216 23.8528 79.1833 23.7787C78.845 23.7046 78.4917 23.7287 78.1673 23.8478C77.8429 23.967 77.5615 24.1762 77.3581 24.4493C77.1546 24.7225 77.0381 25.0476 77.0227 25.3846C77.0207 25.7878 77.1566 26.1802 77.4091 26.4999C77.0608 26.3694 76.6837 26.3286 76.3144 26.3816C75.9451 26.4345 75.5961 26.5793 75.3013 26.802L71.5332 29.7818C71.343 29.9254 71.1868 30.1073 71.0755 30.315C70.9642 30.5227 70.9003 30.7513 70.8883 30.9853C70.8762 31.2192 70.9162 31.4529 71.0056 31.6704C71.0949 31.8879 71.2316 32.0841 71.4061 32.2455ZM84.7599 19.5176C86.7852 21.5708 87.8912 24.3211 87.8355 27.1658H90.4079C90.4773 23.6443 89.108 20.2396 86.6002 17.6985C84.0924 15.1574 80.6508 13.6873 77.0301 13.6105V16.2122C79.9549 16.2758 82.7345 17.4645 84.7599 19.5176ZM81.451 22.6759C82.638 23.8845 83.2956 25.4945 83.2849 27.1658H85.8646C85.9105 24.8405 85.0062 22.5924 83.3499 20.9148C81.6937 19.2371 79.4209 18.2669 77.0301 18.2169V20.8138C77.8585 20.8151 78.6779 20.9809 79.4382 21.3011C80.1984 21.6213 80.8833 22.0891 81.451 22.6759Z"/>
</mask>
<path fill-rule="evenodd" clip-rule="evenodd" d="M72.9701 67.4842C86.4544 67.4842 97.3856 43.8997 97.3856 30.4155C97.3856 16.9312 86.4544 6 72.9701 6C59.4859 6 48.5547 16.9312 48.5547 30.4155C48.5547 43.8997 59.4859 67.4842 72.9701 67.4842ZM62.8928 51.5434C63.0848 51.6208 63.2905 51.6606 63.4982 51.6606H76.2256C76.4334 51.6606 76.6391 51.6208 76.831 51.5434C77.023 51.4661 77.1974 51.3528 77.3443 51.2099C77.4912 51.067 77.6077 50.8974 77.6872 50.7107C77.7667 50.524 77.8077 50.324 77.8077 50.1219C77.8077 49.9198 77.7667 49.7198 77.6872 49.5331C77.6077 49.3464 77.4912 49.1768 77.3443 49.0339C77.1974 48.891 77.023 48.7777 76.831 48.7004C76.6391 48.6231 76.4334 48.5833 76.2256 48.5833H70.1761V45.3252C72.3522 45.7302 74.594 45.6536 76.7354 45.1011C78.8769 44.5486 80.863 43.5345 82.5465 42.1338C85.2289 39.544 84.1579 34.5499 81.1552 30.0315L78.2845 30.928L77.9813 31.4774C80.5292 35.0683 81.4412 38.431 79.9741 39.7461C78.0791 41.4512 72.9246 39.085 68.4669 34.4619C64.0093 29.8388 61.9284 24.7068 63.821 23.0017C65.3688 21.6058 69.1027 22.9328 72.8414 25.9934C72.9351 26.0689 73.0485 26.1176 73.169 26.134C73.2895 26.1504 73.4123 26.1338 73.5236 26.0862L73.8464 25.9458L74.2621 23.3822C74.2816 23.2708 74.269 23.1564 74.2259 23.0515C74.1828 22.9466 74.1107 22.8553 74.0176 22.7877C69.3301 19.4797 64.2196 17.9934 61.4149 20.7021C57.8474 24.1527 55.7029 34.7758 62.5495 41.3918C63.8315 42.6438 65.3403 43.6548 66.9998 44.374V48.5833H63.4982C63.2905 48.5833 63.0848 48.6231 62.8928 48.7004C62.7009 48.7777 62.5265 48.891 62.3796 49.0339C62.2327 49.1768 62.1161 49.3464 62.0366 49.5331C61.9571 49.7198 61.9162 49.9198 61.9162 50.1219C61.9162 50.324 61.9571 50.524 62.0366 50.7107C62.1161 50.8974 62.2327 51.067 62.3796 51.2099C62.5265 51.3528 62.7009 51.4661 62.8928 51.5434ZM71.4061 32.2455L71.7631 32.5903V32.588C71.9311 32.7583 72.1347 32.8916 72.3603 32.9789C72.5858 33.0662 72.8279 33.1054 73.0703 33.0939C73.3128 33.0824 73.5498 33.0205 73.7655 32.9123C73.9813 32.8041 74.1706 32.6521 74.3208 32.4667L77.4042 28.84C77.6338 28.5583 77.7837 28.2232 77.8391 27.8678C77.8944 27.5123 77.8532 27.149 77.7196 26.8139C78.0267 27.0557 78.4102 27.1868 78.8053 27.1849C79.1521 27.1827 79.4906 27.0816 79.7789 26.8942C80.0673 26.7067 80.2927 26.4412 80.4274 26.1304C80.5621 25.8196 80.6001 25.4772 80.5367 25.1456C80.4733 24.814 80.3113 24.5077 80.0707 24.2648C79.8302 24.0218 79.5216 23.8528 79.1833 23.7787C78.845 23.7046 78.4917 23.7287 78.1673 23.8478C77.8429 23.967 77.5615 24.1762 77.3581 24.4493C77.1546 24.7225 77.0381 25.0476 77.0227 25.3846C77.0207 25.7878 77.1566 26.1802 77.4091 26.4999C77.0608 26.3694 76.6837 26.3286 76.3144 26.3816C75.9451 26.4345 75.5961 26.5793 75.3013 26.802L71.5332 29.7818C71.343 29.9254 71.1868 30.1073 71.0755 30.315C70.9642 30.5227 70.9003 30.7513 70.8883 30.9853C70.8762 31.2192 70.9162 31.4529 71.0056 31.6704C71.0949 31.8879 71.2316 32.0841 71.4061 32.2455ZM84.7599 19.5176C86.7852 21.5708 87.8912 24.3211 87.8355 27.1658H90.4079C90.4773 23.6443 89.108 20.2396 86.6002 17.6985C84.0924 15.1574 80.6508 13.6873 77.0301 13.6105V16.2122C79.9549 16.2758 82.7345 17.4645 84.7599 19.5176ZM81.451 22.6759C82.638 23.8845 83.2956 25.4945 83.2849 27.1658H85.8646C85.9105 24.8405 85.0062 22.5924 83.3499 20.9148C81.6937 19.2371 79.4209 18.2669 77.0301 18.2169V20.8138C77.8585 20.8151 78.6779 20.9809 79.4382 21.3011C80.1984 21.6213 80.8833 22.0891 81.451 22.6759Z" fill="url(#paint4_linear_0_1)" fill-opacity="0.5" shape-rendering="crispEdges"/>
<path d="M62.8928 51.5434L62.5628 52.3626L62.5628 52.3626L62.8928 51.5434ZM76.831 51.5434L77.161 52.3626L77.1611 52.3626L76.831 51.5434ZM77.3443 51.2099L76.7285 50.5768L76.7285 50.5768L77.3443 51.2099ZM77.6872 50.7107L78.4998 51.0568L78.4998 51.0568L77.6872 50.7107ZM77.6872 49.5331L78.4998 49.187L78.4998 49.187L77.6872 49.5331ZM77.3443 49.0339L76.7285 49.667L76.7285 49.667L77.3443 49.0339ZM70.1761 48.5833H69.293V49.4664H70.1761V48.5833ZM70.1761 45.3252L70.3377 44.457L69.293 44.2625V45.3252H70.1761ZM76.7354 45.1011L76.5148 44.2459L76.7354 45.1011ZM82.5465 42.1338L83.1113 42.8127L83.1364 42.7918L83.1599 42.7691L82.5465 42.1338ZM81.1552 30.0315L81.8907 29.5427L81.5241 28.991L80.8919 29.1885L81.1552 30.0315ZM78.2845 30.928L78.0212 30.085L77.6826 30.1907L77.5113 30.5013L78.2845 30.928ZM77.9813 31.4774L77.208 31.0506L76.9401 31.5361L77.261 31.9884L77.9813 31.4774ZM79.9741 39.7461L79.3846 39.0885L79.3834 39.0896L79.9741 39.7461ZM63.821 23.0017L64.4122 23.6579L64.4125 23.6576L63.821 23.0017ZM72.8414 25.9934L72.282 26.6768L72.287 26.6809L72.8414 25.9934ZM73.169 26.134L73.05 27.0091H73.05L73.169 26.134ZM73.5236 26.0862L73.8711 26.8981L73.8757 26.8961L73.5236 26.0862ZM73.8464 25.9458L74.1985 26.7558L74.641 26.5635L74.7182 26.0872L73.8464 25.9458ZM74.2621 23.3822L73.3921 23.2301L73.3903 23.2409L74.2621 23.3822ZM74.2259 23.0515L75.0427 22.7155L75.0427 22.7155L74.2259 23.0515ZM74.0176 22.7877L74.5365 22.073L74.5268 22.0661L74.0176 22.7877ZM61.4149 20.7021L60.8014 20.0668L60.8009 20.0673L61.4149 20.7021ZM62.5495 41.3918L63.1666 40.7599L63.1632 40.7567L62.5495 41.3918ZM66.9998 44.374H67.883V43.7941L67.351 43.5636L66.9998 44.374ZM66.9998 48.5833V49.4664H67.883V48.5833H66.9998ZM62.8928 48.7004L63.2228 49.5196H63.2228L62.8928 48.7004ZM62.3796 49.0339L62.9953 49.667L62.9953 49.667L62.3796 49.0339ZM62.0366 49.5331L61.2241 49.187L61.2241 49.187L62.0366 49.5331ZM62.0366 50.7107L61.2241 51.0568L61.2241 51.0568L62.0366 50.7107ZM62.3796 51.2099L61.7638 51.843L61.7638 51.843L62.3796 51.2099ZM71.7631 32.5903L71.1495 33.2256L72.6463 34.6713V32.5903H71.7631ZM71.4061 32.2455L72.0197 31.6103L72.0128 31.6036L72.0058 31.5971L71.4061 32.2455ZM71.7631 32.588L72.3919 31.9678L70.8799 30.4349V32.588H71.7631ZM72.3603 32.9789L72.0415 33.8025L72.0415 33.8025L72.3603 32.9789ZM73.0703 33.0939L73.0285 32.2117L73.0285 32.2117L73.0703 33.0939ZM73.7655 32.9123L73.3696 32.1228L73.3696 32.1228L73.7655 32.9123ZM74.3208 32.4667L73.6479 31.8946L73.6411 31.9026L73.6345 31.9108L74.3208 32.4667ZM77.4042 28.84L78.0771 29.4121L78.083 29.4051L78.0887 29.3981L77.4042 28.84ZM77.8391 27.8678L78.7117 28.0036V28.0036L77.8391 27.8678ZM77.7196 26.8139L78.2661 26.12L75.6807 24.0838L76.8992 27.1409L77.7196 26.8139ZM78.8053 27.1849L78.8096 28.068L78.8109 28.068L78.8053 27.1849ZM79.7789 26.8942L80.2603 27.6346L80.2603 27.6346L79.7789 26.8942ZM80.5367 25.1456L81.4042 24.9797L81.4042 24.9797L80.5367 25.1456ZM80.0707 24.2648L79.4432 24.8862L79.4432 24.8862L80.0707 24.2648ZM79.1833 23.7787L79.3723 22.916L79.3723 22.916L79.1833 23.7787ZM78.1673 23.8478L78.4719 24.6768L78.4719 24.6768L78.1673 23.8478ZM77.3581 24.4493L78.0664 24.9769L78.0664 24.9769L77.3581 24.4493ZM77.0227 25.3846L76.1405 25.3445L76.1397 25.3623L76.1396 25.3802L77.0227 25.3846ZM77.4091 26.4999L77.0992 27.327L80.0643 28.4381L78.1023 25.9527L77.4091 26.4999ZM75.3013 26.802L74.769 26.0972L74.7612 26.1031L74.7535 26.1092L75.3013 26.802ZM71.5332 29.7818L72.0653 30.4867L72.0732 30.4807L72.081 30.4745L71.5332 29.7818ZM71.0056 31.6704L71.8225 31.3348L71.8225 31.3348L71.0056 31.6704ZM87.8355 27.1658L86.9525 27.1485L86.9348 28.049H87.8355V27.1658ZM90.4079 27.1658V28.049H91.2738L91.2909 27.1832L90.4079 27.1658ZM86.6002 17.6985L85.9716 18.3189L86.6002 17.6985ZM77.0301 13.6105L77.0488 12.7275L76.1469 12.7084V13.6105H77.0301ZM77.0301 16.2122H76.1469V17.0763L77.0109 17.0951L77.0301 16.2122ZM83.2849 27.1658L82.4018 27.1602L82.3961 28.049H83.2849V27.1658ZM81.451 22.6759L80.8163 23.29L80.8209 23.2948L81.451 22.6759ZM85.8646 27.1658V28.049H86.7306L86.7476 27.1832L85.8646 27.1658ZM83.3499 20.9148L82.7214 21.5352L83.3499 20.9148ZM77.0301 18.2169L77.0485 17.3339L76.1469 17.3151V18.2169H77.0301ZM77.0301 20.8138H76.1469V21.6957L77.0287 21.697L77.0301 20.8138ZM79.4382 21.3011L79.781 20.4872L79.4382 21.3011ZM96.5024 30.4155C96.5024 36.9686 93.8294 46.0836 89.4714 53.5618C87.297 57.2931 84.7284 60.5719 81.9101 62.9085C79.0922 65.2448 76.0734 66.601 72.9701 66.601V68.3674C76.609 68.3674 80.0133 66.7756 83.0374 64.2683C86.0611 61.7615 88.7537 58.3015 90.9975 54.4511C95.4762 46.7659 98.2688 37.3466 98.2688 30.4155H96.5024ZM72.9701 6.88318C85.9667 6.88318 96.5024 17.4189 96.5024 30.4155H98.2688C98.2688 16.4434 86.9422 5.11682 72.9701 5.11682V6.88318ZM49.4379 30.4155C49.4379 17.4189 59.9736 6.88318 72.9701 6.88318V5.11682C58.9981 5.11682 47.6715 16.4434 47.6715 30.4155H49.4379ZM72.9701 66.601C69.8669 66.601 66.8481 65.2448 64.0302 62.9085C61.2119 60.5719 58.6433 57.2931 56.4689 53.5618C52.1109 46.0836 49.4379 36.9686 49.4379 30.4155H47.6715C47.6715 37.3466 50.4641 46.7659 54.9428 54.4511C57.1866 58.3015 59.8792 61.7615 62.9029 64.2683C65.927 66.7756 69.3313 68.3674 72.9701 68.3674V66.601ZM63.4982 50.7774C63.4031 50.7774 63.3094 50.7591 63.2228 50.7242L62.5628 52.3626C62.8601 52.4824 63.1779 52.5437 63.4982 52.5437V50.7774ZM76.2256 50.7774H63.4982V52.5437H76.2256V50.7774ZM76.501 50.7242C76.4144 50.7591 76.3207 50.7774 76.2256 50.7774V52.5437C76.546 52.5437 76.8638 52.4824 77.161 52.3626L76.501 50.7242ZM76.7285 50.5768C76.6647 50.6388 76.5876 50.6894 76.501 50.7242L77.1611 52.3626C77.4583 52.2429 77.73 52.0667 77.96 51.843L76.7285 50.5768ZM76.8747 50.3647C76.8416 50.4424 76.7923 50.5147 76.7285 50.5768L77.96 51.843C78.1901 51.6193 78.3739 51.3524 78.4998 51.0568L76.8747 50.3647ZM76.9245 50.1219C76.9245 50.2045 76.9078 50.2869 76.8747 50.3647L78.4998 51.0568C78.6257 50.7612 78.6908 50.4434 78.6908 50.1219H76.9245ZM76.8747 49.8792C76.9078 49.9569 76.9245 50.0393 76.9245 50.1219H78.6908C78.6908 49.8004 78.6257 49.4827 78.4998 49.187L76.8747 49.8792ZM76.7285 49.667C76.7923 49.7291 76.8416 49.8014 76.8747 49.8792L78.4998 49.187C78.3739 48.8915 78.1901 48.6245 77.96 48.4008L76.7285 49.667ZM76.501 49.5196C76.5876 49.5545 76.6647 49.605 76.7285 49.667L77.96 48.4008C77.7301 48.1771 77.4583 48.0009 77.161 47.8812L76.501 49.5196ZM76.2256 49.4664C76.3207 49.4664 76.4144 49.4847 76.501 49.5196L77.161 47.8812C76.8638 47.7614 76.546 47.7001 76.2256 47.7001V49.4664ZM70.1761 49.4664H76.2256V47.7001H70.1761V49.4664ZM69.293 45.3252V48.5833H71.0593V45.3252H69.293ZM76.5148 44.2459C74.4984 44.7662 72.387 44.8383 70.3377 44.457L70.0145 46.1935C72.3173 46.622 74.6896 46.541 76.956 45.9563L76.5148 44.2459ZM81.9816 41.4548C80.3994 42.7712 78.5312 43.7257 76.5148 44.2459L76.956 45.9563C79.2226 45.3715 81.3265 44.2977 83.1113 42.8127L81.9816 41.4548ZM80.4196 30.5203C81.8721 32.7059 82.8247 34.961 83.1086 36.9318C83.3923 38.9017 82.9994 40.4688 81.9331 41.4984L83.1599 42.7691C84.7759 41.2089 85.1888 38.9841 84.8569 36.68C84.5252 34.3766 83.441 31.8754 81.8907 29.5427L80.4196 30.5203ZM78.5478 31.771L81.4184 30.8745L80.8919 29.1885L78.0212 30.085L78.5478 31.771ZM78.7545 31.9041L79.0577 31.3548L77.5113 30.5013L77.208 31.0506L78.7545 31.9041ZM80.5636 40.4038C81.6772 39.4056 81.7254 37.7936 81.3402 36.2512C80.9417 34.6554 80.0141 32.8162 78.7016 30.9663L77.261 31.9884C78.4964 33.7296 79.2988 35.3671 79.6265 36.6792C79.9675 38.0447 79.7382 38.7716 79.3846 39.0885L80.5636 40.4038ZM67.8312 35.0749C70.1179 37.4465 72.6084 39.2675 74.813 40.2797C75.9129 40.7848 76.9825 41.1074 77.9451 41.1712C78.9067 41.2349 79.8535 41.0427 80.5648 40.4027L79.3834 39.0896C79.1472 39.3021 78.739 39.4536 78.0619 39.4087C77.3857 39.3639 76.5328 39.1257 75.55 38.6745C73.5892 37.7741 71.2736 36.1004 69.1027 33.8489L67.8312 35.0749ZM63.2299 22.3456C62.5131 22.9913 62.2402 23.9079 62.2385 24.86C62.2368 25.8068 62.4986 26.8704 62.9442 27.9694C63.8375 30.1729 65.5452 32.7042 67.8312 35.0749L69.1027 33.8489C66.931 31.5966 65.3694 29.2503 64.5811 27.3058C64.1858 26.3307 64.0037 25.5027 64.0048 24.8632C64.0059 24.229 64.1826 23.8647 64.4122 23.6579L63.2299 22.3456ZM73.4009 25.31C71.4778 23.7357 69.5174 22.5737 67.7929 21.9898C66.1385 21.4296 64.384 21.3047 63.2295 22.3459L64.4125 23.6576C64.8058 23.3028 65.6922 23.1434 67.2264 23.6629C68.6904 24.1586 70.4663 25.1904 72.282 26.6768L73.4009 25.31ZM73.288 25.2589C73.3252 25.2639 73.3627 25.2792 73.3958 25.3059L72.287 26.6809C72.5074 26.8586 72.7718 26.9713 73.05 27.0091L73.288 25.2589ZM73.1762 25.2742C73.2123 25.2587 73.2508 25.2538 73.288 25.2589L73.05 27.0091C73.3282 27.0469 73.6122 27.0089 73.8711 26.8981L73.1762 25.2742ZM73.4943 25.1359L73.1715 25.2762L73.8757 26.8961L74.1985 26.7558L73.4943 25.1359ZM73.3903 23.2409L72.9746 25.8045L74.7182 26.0872L75.1339 23.5236L73.3903 23.2409ZM73.4091 23.3874C73.389 23.3384 73.3827 23.2837 73.3921 23.2301L75.1321 23.5344C75.1804 23.258 75.1491 22.9743 75.0427 22.7155L73.4091 23.3874ZM73.4987 23.5023C73.4613 23.4752 73.4292 23.4362 73.4091 23.3874L75.0427 22.7155C74.9363 22.457 74.7601 22.2354 74.5365 22.073L73.4987 23.5023ZM62.0285 21.3373C63.146 20.258 64.7841 19.9407 66.8356 20.3544C68.8894 20.7685 71.2252 21.898 73.5083 23.5093L74.5268 22.0661C72.1225 20.3694 69.5592 19.1017 67.1848 18.6229C64.808 18.1436 62.4885 18.4374 60.8014 20.0668L62.0285 21.3373ZM63.1632 40.7567C59.9568 37.6583 58.8396 33.6108 58.9596 29.8884C59.081 26.1255 60.4589 22.8555 62.0289 21.3369L60.8009 20.0673C58.8034 21.9993 57.3253 25.7662 57.1942 29.8315C57.0618 33.9373 58.2956 38.5093 61.9358 42.0269L63.1632 40.7567ZM67.351 43.5636C65.7892 42.8869 64.3708 41.936 63.1666 40.7599L61.9324 42.0236C63.2922 43.3516 64.8913 44.4228 66.6486 45.1843L67.351 43.5636ZM67.883 48.5833V44.374H66.1166V48.5833H67.883ZM63.4982 49.4664H66.9998V47.7001H63.4982V49.4664ZM63.2228 49.5196C63.3095 49.4847 63.4031 49.4664 63.4982 49.4664V47.7001C63.1779 47.7001 62.8601 47.7614 62.5628 47.8812L63.2228 49.5196ZM62.9953 49.667C63.0591 49.605 63.1362 49.5545 63.2228 49.5196L62.5628 47.8812C62.2655 48.0009 61.9938 48.1771 61.7638 48.4008L62.9953 49.667ZM62.8492 49.8792C62.8823 49.8014 62.9315 49.7291 62.9953 49.667L61.7638 48.4008C61.5338 48.6245 61.3499 48.8915 61.2241 49.187L62.8492 49.8792ZM62.7994 50.1219C62.7994 50.0393 62.8161 49.9569 62.8492 49.8792L61.2241 49.187C61.0982 49.4827 61.033 49.8004 61.033 50.1219H62.7994ZM62.8492 50.3647C62.8161 50.2869 62.7994 50.2045 62.7994 50.1219H61.033C61.033 50.4434 61.0982 50.7612 61.2241 51.0568L62.8492 50.3647ZM62.9953 50.5768C62.9315 50.5147 62.8823 50.4424 62.8492 50.3647L61.2241 51.0568C61.3499 51.3524 61.5338 51.6193 61.7638 51.843L62.9953 50.5768ZM63.2228 50.7242C63.1362 50.6894 63.0591 50.6388 62.9953 50.5768L61.7638 51.843C61.9938 52.0667 62.2655 52.2429 62.5628 52.3626L63.2228 50.7242ZM72.3767 31.9551L72.0197 31.6103L70.7925 32.8807L71.1495 33.2256L72.3767 31.9551ZM70.8799 32.588V32.5903H72.6463V32.588H70.8799ZM72.679 32.1553C72.5688 32.1126 72.4711 32.0481 72.3919 31.9678L71.1343 33.2082C71.3911 33.4685 71.7007 33.6706 72.0415 33.8025L72.679 32.1553ZM73.0285 32.2117C72.9086 32.2174 72.7893 32.1979 72.679 32.1552L72.0415 33.8025C72.3822 33.9344 72.7472 33.9934 73.1122 33.9761L73.0285 32.2117ZM73.3696 32.1228C73.2648 32.1754 73.1484 32.206 73.0285 32.2117L73.1122 33.9761C73.4771 33.9588 73.8349 33.8655 74.1615 33.7017L73.3696 32.1228ZM73.6345 31.9108C73.5643 31.9975 73.4743 32.0703 73.3696 32.1228L74.1615 33.7017C74.4882 33.5378 74.7769 33.3067 75.0071 33.0225L73.6345 31.9108ZM76.7313 28.268L73.6479 31.8946L74.9936 33.0387L78.0771 29.4121L76.7313 28.268ZM76.9664 27.7319C76.9354 27.9307 76.8513 28.1205 76.7196 28.282L78.0887 29.3981C78.4164 28.9962 78.632 28.5156 78.7117 28.0036L76.9664 27.7319ZM76.8992 27.1409C76.9745 27.3297 76.9973 27.5332 76.9664 27.7319L78.7117 28.0036C78.7914 27.4915 78.732 26.9684 78.54 26.4869L76.8992 27.1409ZM78.8011 26.3017C78.6033 26.3026 78.4144 26.2368 78.2661 26.12L77.1732 27.5077C77.6389 27.8745 78.2172 28.0709 78.8096 28.068L78.8011 26.3017ZM79.2976 26.1537C79.1522 26.2482 78.9791 26.3006 78.7997 26.3017L78.8109 28.068C79.3251 28.0648 79.829 27.915 80.2603 27.6346L79.2976 26.1537ZM79.6171 25.7792C79.5525 25.9282 79.4427 26.0593 79.2976 26.1537L80.2603 27.6346C80.6918 27.3541 81.0329 26.9542 81.2378 26.4815L79.6171 25.7792ZM79.6692 25.3114C79.6992 25.4682 79.6815 25.6305 79.6171 25.7792L81.2378 26.4815C81.4427 26.0086 81.501 25.4861 81.4042 24.9797L79.6692 25.3114ZM79.4432 24.8862C79.562 25.0062 79.6392 25.1544 79.6692 25.3114L81.4042 24.9797C81.3074 24.4735 81.0606 24.0093 80.6983 23.6434L79.4432 24.8862ZM78.9943 24.6414C79.1685 24.6796 79.3241 24.766 79.4432 24.8862L80.6983 23.6434C80.3362 23.2777 79.8747 23.0261 79.3723 22.916L78.9943 24.6414ZM78.4719 24.6768C78.638 24.6158 78.82 24.6033 78.9943 24.6415L79.3723 22.916C78.8699 22.806 78.3454 22.8415 77.8627 23.0189L78.4719 24.6768ZM78.0664 24.9769C78.1658 24.8434 78.3059 24.7378 78.4719 24.6768L77.8627 23.0189C77.3799 23.1963 76.9573 23.5089 76.6498 23.9218L78.0664 24.9769ZM77.905 25.4247C77.9122 25.2658 77.9672 25.11 78.0664 24.9769L76.6498 23.9218C76.3421 24.3349 76.1639 24.8295 76.1405 25.3445L77.905 25.4247ZM78.1023 25.9527C77.9724 25.7882 77.9049 25.5898 77.9059 25.389L76.1396 25.3802C76.1365 25.9857 76.3409 26.5721 76.7159 27.0472L78.1023 25.9527ZM76.4397 27.2558C76.6627 27.2238 76.8901 27.2486 77.0992 27.327L77.719 25.6729C77.2314 25.4902 76.7047 25.4334 76.1891 25.5073L76.4397 27.2558ZM75.8336 27.5067C76.008 27.375 76.2167 27.2878 76.4397 27.2558L76.1891 25.5073C75.6735 25.5812 75.1842 25.7836 74.769 26.0972L75.8336 27.5067ZM72.081 30.4745L75.8491 27.4947L74.7535 26.1092L70.9854 29.089L72.081 30.4745ZM71.854 30.7321C71.9042 30.6384 71.9758 30.5542 72.0653 30.4867L71.0012 29.0769C70.7101 29.2965 70.4695 29.5761 70.2971 29.8978L71.854 30.7321ZM71.7703 31.0308C71.7756 30.9276 71.8038 30.8258 71.854 30.7321L70.2971 29.8978C70.1247 30.2195 70.0251 30.575 70.0063 30.9397L71.7703 31.0308ZM71.8225 31.3348C71.7825 31.2375 71.7649 31.1339 71.7703 31.0308L70.0063 30.9397C69.9874 31.3045 70.0499 31.6684 70.1887 32.0061L71.8225 31.3348ZM72.0058 31.5971C71.9245 31.5219 71.8625 31.4321 71.8225 31.3348L70.1887 32.0061C70.3274 32.3437 70.5387 32.6462 70.8064 32.8939L72.0058 31.5971ZM88.7185 27.1831C88.779 24.0966 87.5787 21.1175 85.3886 18.8974L84.1311 20.1379C85.9918 22.0241 87.0035 24.5455 86.9525 27.1485L88.7185 27.1831ZM90.4079 26.2826H87.8355V28.049H90.4079V26.2826ZM85.9716 18.3189C88.3146 20.693 89.5896 23.8687 89.5249 27.1484L91.2909 27.1832C91.3651 23.4198 89.9014 19.7862 87.2288 17.0782L85.9716 18.3189ZM77.0113 14.4935C80.406 14.5655 83.6278 15.9439 85.9716 18.3189L87.2288 17.0782C84.557 14.3709 80.8955 12.8091 77.0488 12.7275L77.0113 14.4935ZM77.9133 16.2122V13.6105H76.1469V16.2122H77.9133ZM85.3886 18.8974C83.1994 16.6781 80.2 15.3978 77.0493 15.3292L77.0109 17.0951C79.7098 17.1539 82.2696 18.2508 84.1311 20.1379L85.3886 18.8974ZM84.1681 27.1715C84.1803 25.2632 83.4292 23.4297 82.0811 22.0571L80.8209 23.2948C81.8469 24.3394 82.411 25.7258 82.4018 27.1602L84.1681 27.1715ZM85.8646 26.2826H83.2849V28.049H85.8646V26.2826ZM82.7214 21.5352C84.2128 23.0459 85.0227 25.065 84.9816 27.1484L86.7476 27.1832C86.7983 24.616 85.7995 22.1389 83.9784 20.2943L82.7214 21.5352ZM77.0116 19.0999C79.1764 19.1451 81.2292 20.0237 82.7214 21.5352L83.9784 20.2943C82.1582 18.4505 79.6654 17.3886 77.0485 17.3339L77.0116 19.0999ZM77.9133 20.8138V18.2169H76.1469V20.8138H77.9133ZM79.781 20.4872C78.9122 20.1213 77.9766 19.9321 77.0314 19.9307L77.0287 21.697C77.7404 21.6981 78.4437 21.8406 79.0953 22.1151L79.781 20.4872ZM82.0858 22.0618C81.4343 21.3885 80.6498 20.8531 79.781 20.4872L79.0953 22.1151C79.7469 22.3895 80.3323 22.7898 80.8163 23.29L82.0858 22.0618Z" fill="url(#paint5_linear_0_1)" mask="url(#path-5-outside-1_0_1)"/>
</g>
<path d="M63.4978 51.6604C63.2901 51.6604 63.0843 51.6206 62.8924 51.5433C62.7004 51.466 62.526 51.3526 62.3791 51.2098C62.2322 51.0669 62.1157 50.8973 62.0362 50.7106C61.9567 50.5239 61.9158 50.3238 61.9158 50.1218C61.9158 49.9197 61.9567 49.7196 62.0362 49.533C62.1157 49.3463 62.2322 49.1767 62.3791 49.0338C62.526 48.8909 62.7004 48.7776 62.8924 48.7002C63.0843 48.6229 63.2901 48.5831 63.4978 48.5831H66.9994V44.3738C65.3398 43.6547 63.8311 42.6437 62.5491 41.3917C55.7025 34.7757 57.8469 24.1526 61.4145 20.7019C64.2191 17.9932 69.3297 19.4796 74.0171 22.7876C74.1102 22.8551 74.1823 22.9464 74.2255 23.0513C74.2686 23.1562 74.2811 23.2707 74.2617 23.3821L73.846 25.9457L73.5232 26.086C73.4118 26.1337 73.289 26.1502 73.1685 26.1339C73.0481 26.1175 72.9346 26.0688 72.841 25.9933C69.1022 22.9326 65.3684 21.6056 63.8206 23.0016C61.928 24.7067 64.0089 29.8387 68.4665 34.4618C72.9241 39.0849 78.0786 41.4511 79.9737 39.746C81.4408 38.4309 80.5287 35.0682 77.9808 31.4772L78.284 30.9279L81.1547 30.0313C84.1574 34.5498 85.2285 39.5438 82.546 42.1336C80.8625 43.5343 78.8764 44.5485 76.735 45.101C74.5936 45.6534 72.3517 45.73 70.1757 45.3251V48.5831H76.2252C76.4329 48.5831 76.6386 48.6229 76.8306 48.7002C77.0225 48.7776 77.1969 48.8909 77.3438 49.0338C77.4908 49.1767 77.6073 49.3463 77.6868 49.533C77.7663 49.7196 77.8072 49.9197 77.8072 50.1218C77.8072 50.3238 77.7663 50.5239 77.6868 50.7106C77.6073 50.8973 77.4908 51.0669 77.3438 51.2098C77.1969 51.3526 77.0225 51.466 76.8306 51.5433C76.6386 51.6206 76.4329 51.6604 76.2252 51.6604H63.4978ZM71.7626 32.5902L71.4056 32.2454C71.2311 32.084 71.0945 31.8878 71.0051 31.6703C70.9158 31.4528 70.8758 31.2191 70.8878 30.9851C70.8999 30.7512 70.9638 30.5225 71.0751 30.3148C71.1864 30.1071 71.3425 29.9252 71.5328 29.7816L75.3009 26.8018C75.5957 26.5792 75.9447 26.4343 76.3139 26.3814C76.6832 26.3285 77.0603 26.3693 77.4086 26.4998C77.1562 26.18 77.0203 25.7876 77.0223 25.3845C77.0376 25.0475 77.1542 24.7223 77.3577 24.4492C77.5611 24.176 77.8425 23.9669 78.1669 23.8477C78.4913 23.7285 78.8445 23.7045 79.1829 23.7786C79.5212 23.8527 79.8297 24.0217 80.0703 24.2646C80.3109 24.5076 80.4729 24.8138 80.5363 25.1454C80.5997 25.477 80.5617 25.8194 80.427 26.1302C80.2923 26.441 80.0668 26.7066 79.7785 26.894C79.4902 27.0815 79.1517 27.1825 78.8049 27.1847C78.4098 27.1866 78.0262 27.0555 77.7192 26.8137C77.8528 27.1489 77.894 27.5122 77.8386 27.8676C77.7833 28.223 77.6334 28.5582 77.4038 28.8399L74.3203 32.4665C74.1702 32.652 73.9808 32.8039 73.7651 32.9121C73.5494 33.0203 73.3123 33.0823 73.0699 33.0938C72.8275 33.1052 72.5853 33.066 72.3598 32.9788C72.1343 32.8915 71.9307 32.7582 71.7626 32.5878V32.5902ZM87.8351 27.1657C87.8908 24.3209 86.7848 21.5707 84.7594 19.5175C82.7341 17.4643 79.9545 16.2757 77.0296 16.212V13.6104C80.6504 13.6871 84.092 15.1573 86.5998 17.6984C89.1076 20.2395 90.4769 23.6441 90.4074 27.1657H87.8351ZM83.2845 27.1657C83.2952 25.4944 82.6376 23.8844 81.4506 22.6758C80.8829 22.089 80.1979 21.6212 79.4377 21.301C78.6775 20.9808 77.8581 20.815 77.0296 20.8137V18.2168C79.4205 18.2667 81.6933 19.237 83.3495 20.9146C85.0057 22.5923 85.9101 24.8404 85.8642 27.1657H83.2845Z" fill="url(#paint6_linear_0_1)"/>
<g opacity="0.7" filter="url(#filter2_d_0_1)">
<path d="M0 7C0 6.44771 0.447715 6 1 6H7.14963C7.63989 6 8.05786 6.35543 8.13663 6.83932L14.9729 48.8333C14.9908 48.9437 14.9902 49.0562 14.9709 49.1664L8.14483 88.1724C8.06109 88.6509 7.64558 89 7.1598 89H1C0.447715 89 0 88.5523 0 88V7Z" fill="url(#paint7_linear_0_1)"/>
</g>
<defs>
<filter id="filter0_d_0_1" x="26.2366" y="65.8203" width="93.02" height="28.5542" filterUnits="userSpaceOnUse" color-interpolation-filters="sRGB">
<feFlood flood-opacity="0" result="BackgroundImageFix"/>
<feColorMatrix in="SourceAlpha" type="matrix" values="0 0 0 0 0 0 0 0 0 0 0 0 0 0 0 0 0 0 127 0" result="hardAlpha"/>
<feOffset dy="1.76635"/>
<feGaussianBlur stdDeviation="0.883175"/>
<feComposite in2="hardAlpha" operator="out"/>
<feColorMatrix type="matrix" values="0 0 0 0 0.403334 0 0 0 0 0.876821 0 0 0 0 1 0 0 0 0.6 0"/>
<feBlend mode="normal" in2="BackgroundImageFix" result="effect1_dropShadow_0_1"/>
<feBlend mode="normal" in="SourceGraphic" in2="effect1_dropShadow_0_1" result="shape"/>
</filter>
<filter id="filter1_d_0_1" x="43.256" y="0.701311" width="59.4284" height="72.0818" filterUnits="userSpaceOnUse" color-interpolation-filters="sRGB">
<feFlood flood-opacity="0" result="BackgroundImageFix"/>
<feColorMatrix in="SourceAlpha" type="matrix" values="0 0 0 0 0 0 0 0 0 0 0 0 0 0 0 0 0 0 127 0" result="hardAlpha"/>
<feOffset/>
<feGaussianBlur stdDeviation="2.20794"/>
<feComposite in2="hardAlpha" operator="out"/>
<feColorMatrix type="matrix" values="0 0 0 0 0.392157 0 0 0 0 0.980392 0 0 0 0 0.929412 0 0 0 0.6 0"/>
<feBlend mode="normal" in2="BackgroundImageFix" result="effect1_dropShadow_0_1"/>
<feBlend mode="normal" in="SourceGraphic" in2="effect1_dropShadow_0_1" result="shape"/>
</filter>
<filter id="filter2_d_0_1" x="0" y="2" width="22.9863" height="91" filterUnits="userSpaceOnUse" color-interpolation-filters="sRGB">
<feFlood flood-opacity="0" result="BackgroundImageFix"/>
<feColorMatrix in="SourceAlpha" type="matrix" values="0 0 0 0 0 0 0 0 0 0 0 0 0 0 0 0 0 0 127 0" result="hardAlpha"/>
<feOffset dx="4"/>
<feGaussianBlur stdDeviation="2"/>
<feComposite in2="hardAlpha" operator="out"/>
<feColorMatrix type="matrix" values="0 0 0 0 0.754393 0 0 0 0 0.903605 0 0 0 0 0.459191 0 0 0 0.28 0"/>
<feBlend mode="normal" in2="BackgroundImageFix" result="effect1_dropShadow_0_1"/>
<feBlend mode="normal" in="SourceGraphic" in2="effect1_dropShadow_0_1" result="shape"/>
</filter>
<linearGradient id="paint0_linear_0_1" x1="71.7448" y1="38.0402" x2="72.6062" y2="89.0766" gradientUnits="userSpaceOnUse">
<stop stop-color="#2298EE" stop-opacity="0"/>
<stop offset="0.484" stop-color="#67E0FF" stop-opacity="0.24"/>
<stop offset="1" stop-color="#2298EE" stop-opacity="0.61"/>
</linearGradient>
<linearGradient id="paint1_linear_0_1" x1="72.7465" y1="95.0033" x2="79.3197" y2="61.0802" gradientUnits="userSpaceOnUse">
<stop stop-color="#00C24E"/>
<stop offset="1" stop-color="#2298EE" stop-opacity="0.58"/>
</linearGradient>
<linearGradient id="paint2_linear_0_1" x1="72.7465" y1="67.5869" x2="73.1181" y2="91.8124" gradientUnits="userSpaceOnUse">
<stop stop-color="#2298EE" stop-opacity="0"/>
<stop offset="0.324" stop-color="#40C6F5" stop-opacity="0.37"/>
<stop offset="0.514" stop-color="#5DF1FD" stop-opacity="0.747988"/>
<stop offset="0.59823" stop-color="#67FFFF"/>
<stop offset="0.806787" stop-color="#C8FFC6"/>
<stop offset="1" stop-color="#A2FFE9"/>
</linearGradient>
<linearGradient id="paint3_linear_0_1" x1="72.7471" y1="95.0043" x2="63.8056" y2="60.8868" gradientUnits="userSpaceOnUse">
<stop stop-color="#6FE6D2"/>
<stop offset="0.939" stop-color="#BFFFF2" stop-opacity="0"/>
</linearGradient>
<linearGradient id="paint4_linear_0_1" x1="55.867" y1="-16.1166" x2="78.4259" y2="78.9848" gradientUnits="userSpaceOnUse">
<stop stop-color="white"/>
<stop offset="1" stop-color="#67E0FF" stop-opacity="0.67"/>
</linearGradient>
<linearGradient id="paint5_linear_0_1" x1="72.9701" y1="6" x2="72.9701" y2="67.4842" gradientUnits="userSpaceOnUse">
<stop stop-color="#AEFFFF"/>
<stop offset="0.24" stop-color="#64D8FE"/>
<stop offset="1" stop-color="#51B0F4"/>
</linearGradient>
<linearGradient id="paint6_linear_0_1" x1="66.0406" y1="16.1736" x2="74.2387" y2="51.6604" gradientUnits="userSpaceOnUse">
<stop stop-color="#FDFAD8"/>
<stop offset="0.204" stop-color="#AEFFFF"/>
<stop offset="0.598138" stop-color="#64D8FE"/>
<stop offset="0.889165" stop-color="#51B0F4"/>
<stop offset="0.984" stop-color="#51B0F4"/>
</linearGradient>
<linearGradient id="paint7_linear_0_1" x1="-3.64179" y1="154.665" x2="10.2695" y2="154.396" gradientUnits="userSpaceOnUse">
<stop stop-color="#2298EE"/>
<stop offset="1" stop-color="#67E0FF"/>
</linearGradient>
</defs>
</svg>
